<svg width="48" height="48" viewBox="0 0 48 48" fill="none" xmlns="http://www.w3.org/2000/svg">
<g clip-path="url(#clip0_336_4589)">
<path d="M31.9997 15.9993H29.333C29.333 13.0527 26.9463 10.666 23.9997 10.666C21.053 10.666 18.6663 13.0527 18.6663 15.9993H15.9997C14.533 15.9993 13.333 17.1993 13.333 18.666V34.666C13.333 36.1327 14.533 37.3327 15.9997 37.3327H31.9997C33.4663 37.3327 34.6663 36.1327 34.6663 34.666V18.666C34.6663 17.1993 33.4663 15.9993 31.9997 15.9993ZM23.9997 13.3327C25.4663 13.3327 26.6663 14.5327 26.6663 15.9993H21.333C21.333 14.5327 22.533 13.3327 23.9997 13.3327ZM31.9997 34.666H15.9997V18.666H18.6663V21.3327C18.6663 22.066 19.2663 22.666 19.9997 22.666C20.733 22.666 21.333 22.066 21.333 21.3327V18.666H26.6663V21.3327C26.6663 22.066 27.2663 22.666 27.9997 22.666C28.733 22.666 29.333 22.066 29.333 21.3327V18.666H31.9997V34.666Z" fill="#002F52"/>
</g>
<defs>
<clipPath id="clip0_336_4589">
<rect width="32" height="32" fill="white" transform="translate(8 8)"/>
</clipPath>
</defs>
</svg>
